<svg xmlns="http://www.w3.org/2000/svg" width="1460" height="660" viewBox="0 0 1460 660" font-family="DejaVu Sans, sans-serif">
<rect width="1460" height="660" fill="#fafafa"/>
<rect x="40.0" y="40.0" width="1000.0" height="560.0" rx="8" fill="#ffffff" stroke="#52525b" stroke-width="1.2"/>
<rect x="40.0" y="40.0" width="1000.0" height="28.0" rx="8" fill="#f4f4f5"/>
<rect x="40.0" y="60.0" width="1000.0" height="8.0" rx="0" fill="#f4f4f5"/>
<line x1="40.0" y1="68.0" x2="1040.0" y2="68.0" stroke="#d4d4d8" stroke-width="1"/>
<circle cx="56.0" cy="54.0" r="4.5" fill="none" stroke="#a1a1aa" stroke-width="1.2"/>
<circle cx="72.0" cy="54.0" r="4.5" fill="none" stroke="#a1a1aa" stroke-width="1.2"/>
<circle cx="88.0" cy="54.0" r="4.5" fill="none" stroke="#a1a1aa" stroke-width="1.2"/>
<rect x="108.0" y="46.0" width="240.0" height="16.0" rx="8" fill="#ffffff" stroke="#d4d4d8" stroke-width="1"/>
<text x="118.0" y="57.5" font-size="9.5" fill="#a1a1aa" font-weight="normal" text-anchor="start" font-family="DejaVu Sans, sans-serif">http://homeostat.lan  (LAN / WireGuard)</text>
<rect x="40.0" y="68.0" width="180.0" height="532.0" rx="0" fill="#f4f4f5"/>
<line x1="220.0" y1="68.0" x2="220.0" y2="600.0" stroke="#d4d4d8" stroke-width="1"/>
<text x="60.0" y="102.0" font-size="15" fill="#18181b" font-weight="bold" text-anchor="start" font-family="DejaVu Sans, sans-serif">homeostat</text>
<rect x="50.0" y="117.0" width="160.0" height="27.0" rx="6" fill="#ffffff" stroke="#d4d4d8" stroke-width="1"/>
<rect x="50.0" y="117.0" width="3.0" height="27.0" rx="1.5" fill="#18181b"/>
<text x="64.0" y="136.0" font-size="12.5" fill="#18181b" font-weight="bold" text-anchor="start" font-family="DejaVu Sans, sans-serif">Now</text>
<text x="64.0" y="172.0" font-size="12.5" fill="#52525b" font-weight="normal" text-anchor="start" font-family="DejaVu Sans, sans-serif">Setpoints</text>
<text x="64.0" y="208.0" font-size="12.5" fill="#52525b" font-weight="normal" text-anchor="start" font-family="DejaVu Sans, sans-serif">Rooms</text>
<text x="64.0" y="244.0" font-size="12.5" fill="#52525b" font-weight="normal" text-anchor="start" font-family="DejaVu Sans, sans-serif">Health</text>
<line x1="40.0" y1="504.0" x2="220.0" y2="504.0" stroke="#d4d4d8" stroke-width="1"/>
<text x="60.0" y="526.0" font-size="10" fill="#a1a1aa" font-weight="bold" text-anchor="start" font-family="DejaVu Sans, sans-serif" letter-spacing="1.2">HEALTH</text>
<path d="M 66 542 L 71 551 L 61 551 Z" stroke="#18181b" stroke-width="1.2" fill="#18181b" stroke-linecap="round" stroke-linejoin="round"/>
<text x="78.0" y="551.0" font-size="9.5" fill="#52525b" font-weight="normal" text-anchor="start" font-family="DejaVu Sans, sans-serif">evening lights · backoff 3/5</text>
<circle cx="66.0" cy="570.0" r="3.5" fill="#52525b"/>
<text x="78.0" y="574.0" font-size="9.5" fill="#52525b" font-weight="normal" text-anchor="start" font-family="DejaVu Sans, sans-serif">4 units · ok</text>
<text x="244.0" y="106.0" font-size="16" fill="#18181b" font-weight="bold" text-anchor="start" font-family="DejaVu Sans, sans-serif">Now</text>
<rect x="244.0" y="124.0" width="246.7" height="104.0" rx="10" fill="#ffffff" stroke="#d4d4d8" stroke-width="1"/>
<text x="258.0" y="146.0" font-size="10" fill="#a1a1aa" font-weight="bold" text-anchor="start" font-family="DejaVu Sans, sans-serif" letter-spacing="1.2">INSIDE</text>
<text x="258.0" y="176.0" font-size="22" fill="#18181b" font-weight="bold" text-anchor="start" font-family="DejaVu Sans, sans-serif">21.4°</text>
<path d="M 258.0 193.6 L 266.1 194.5 L 274.2 195.6 L 282.3 196.8 L 290.4 197.8 L 298.5 198.6 L 306.6 199.0 L 314.7 199.2 L 322.8 199.1 L 330.9 198.9 L 339.0 198.8 L 347.1 198.8 L 355.2 199.1 L 363.3 199.7 L 371.4 200.7 L 379.5 201.8 L 387.6 203.0 L 395.7 204.1 L 403.8 204.9 L 411.9 205.3 L 420.0 205.2 L 428.1 204.5 L 436.2 203.3 L 444.3 201.6 L 452.4 199.8 L 460.5 197.9 L 468.6 196.1 L 476.7 194.7" stroke="#52525b" stroke-width="1.5" fill="none" stroke-linecap="round" stroke-linejoin="round"/>
<circle cx="476.7" cy="194.7" r="2.5" fill="#18181b"/>
<text x="258.0" y="220.0" font-size="9.5" fill="#a1a1aa" font-weight="normal" text-anchor="start" font-family="DejaVu Sans, sans-serif">20.8–22.3° today</text>
<rect x="506.7" y="124.0" width="246.7" height="104.0" rx="10" fill="#ffffff" stroke="#d4d4d8" stroke-width="1"/>
<text x="520.7" y="146.0" font-size="10" fill="#a1a1aa" font-weight="bold" text-anchor="start" font-family="DejaVu Sans, sans-serif" letter-spacing="1.2">OUTSIDE</text>
<text x="520.7" y="176.0" font-size="22" fill="#18181b" font-weight="bold" text-anchor="start" font-family="DejaVu Sans, sans-serif">14.2°</text>
<path d="M 520.7 198.9 L 528.8 199.6 L 536.9 200.5 L 545.0 201.4 L 553.1 202.1 L 561.2 202.4 L 569.3 202.3 L 577.4 201.7 L 585.5 200.6 L 593.6 199.1 L 601.7 197.2 L 609.8 195.3 L 617.9 193.4 L 626.0 191.8 L 634.0 190.7 L 642.1 190.0 L 650.2 189.8 L 658.3 190.0 L 666.4 190.6 L 674.5 191.2 L 682.6 191.9 L 690.7 192.4 L 698.8 192.8 L 706.9 192.8 L 715.0 192.6 L 723.1 192.4 L 731.2 192.2 L 739.3 192.1" stroke="#52525b" stroke-width="1.5" fill="none" stroke-linecap="round" stroke-linejoin="round"/>
<circle cx="739.3" cy="192.1" r="2.5" fill="#18181b"/>
<text x="520.7" y="220.0" font-size="9.5" fill="#a1a1aa" font-weight="normal" text-anchor="start" font-family="DejaVu Sans, sans-serif">9.6–15.1° today</text>
<rect x="769.3" y="124.0" width="246.7" height="104.0" rx="10" fill="#ffffff" stroke="#d4d4d8" stroke-width="1"/>
<text x="783.3" y="146.0" font-size="10" fill="#a1a1aa" font-weight="bold" text-anchor="start" font-family="DejaVu Sans, sans-serif" letter-spacing="1.2">PEOPLE</text>
<circle cx="789.3" cy="172.0" r="3.5" fill="#52525b"/>
<text x="799.3" y="176.0" font-size="10.5" fill="#18181b" font-weight="normal" text-anchor="start" font-family="DejaVu Sans, sans-serif">hallway motion · 3 min ago</text>
<circle cx="789.3" cy="198.0" r="3.5" fill="none" stroke="#a1a1aa" stroke-width="1.2"/>
<text x="799.3" y="202.0" font-size="10.5" fill="#52525b" font-weight="normal" text-anchor="start" font-family="DejaVu Sans, sans-serif">living room · clear</text>
<rect x="244.0" y="246.0" width="772.0" height="168.0" rx="10" fill="#ffffff" stroke="#d4d4d8" stroke-width="1"/>
<text x="258.0" y="270.0" font-size="10" fill="#a1a1aa" font-weight="bold" text-anchor="start" font-family="DejaVu Sans, sans-serif" letter-spacing="1.2">OUT OF THE ORDINARY — 3</text>
<path d="M 268 291 L 273 300 L 263 300 Z" stroke="#18181b" stroke-width="1.2" fill="#18181b" stroke-linecap="round" stroke-linejoin="round"/>
<text x="284.0" y="294.0" font-size="11.5" fill="#18181b" font-weight="bold" text-anchor="start" font-family="DejaVu Sans, sans-serif">evening lights</text>
<text x="284.0" y="310.0" font-size="10" fill="#52525b" font-weight="normal" text-anchor="start" font-family="DejaVu Sans, sans-serif">backoff, restart 3 of 5</text>
<text x="982.0" y="296.0" font-size="9" fill="#a1a1aa" font-weight="normal" text-anchor="end" font-family="DejaVu Sans, sans-serif">supervision</text>
<text x="1000.0" y="298.0" font-size="13" fill="#a1a1aa" font-weight="normal" text-anchor="end" font-family="DejaVu Sans, sans-serif">›</text>
<circle cx="268.0" cy="336.0" r="4" fill="#52525b"/>
<text x="284.0" y="334.0" font-size="11.5" fill="#18181b" font-weight="bold" text-anchor="start" font-family="DejaVu Sans, sans-serif">2 lights on</text>
<text x="284.0" y="350.0" font-size="10" fill="#52525b" font-weight="normal" text-anchor="start" font-family="DejaVu Sans, sans-serif">Livingroom, Kitchen</text>
<text x="982.0" y="336.0" font-size="9" fill="#a1a1aa" font-weight="normal" text-anchor="end" font-family="DejaVu Sans, sans-serif">state</text>
<text x="1000.0" y="338.0" font-size="13" fill="#a1a1aa" font-weight="normal" text-anchor="end" font-family="DejaVu Sans, sans-serif">›</text>
<circle cx="268.0" cy="376.0" r="4" fill="none" stroke="#52525b" stroke-width="1.4"/>
<text x="284.0" y="374.0" font-size="11.5" fill="#18181b" font-weight="bold" text-anchor="start" font-family="DejaVu Sans, sans-serif">off time</text>
<text x="284.0" y="390.0" font-size="10" fill="#52525b" font-weight="normal" text-anchor="start" font-family="DejaVu Sans, sans-serif">23:00 — differs from default 22:00</text>
<text x="982.0" y="376.0" font-size="9" fill="#a1a1aa" font-weight="normal" text-anchor="end" font-family="DejaVu Sans, sans-serif">setpoint</text>
<text x="1000.0" y="378.0" font-size="13" fill="#a1a1aa" font-weight="normal" text-anchor="end" font-family="DejaVu Sans, sans-serif">›</text>
<rect x="660.0" y="68.0" width="6.0" height="532.0" rx="0" fill="#d4d4d8"/>
<rect x="666.0" y="68.0" width="372.0" height="532.0" rx="0" fill="#ffffff" stroke="#52525b" stroke-width="1.2"/>
<text x="684.0" y="98.0" font-size="13.5" fill="#18181b" font-weight="bold" text-anchor="start" font-family="DejaVu Sans, sans-serif">Inside — history</text>
<text x="1020.0" y="98.0" font-size="13" fill="#52525b" font-weight="normal" text-anchor="end" font-family="DejaVu Sans, sans-serif">✕</text>
<rect x="684.0" y="112.0" width="31.2" height="22.0" rx="11.0" fill="#ffffff" stroke="#d4d4d8" stroke-width="1"/>
<text x="699.6" y="126.6" font-size="10" fill="#52525b" font-weight="normal" text-anchor="middle" font-family="DejaVu Sans, sans-serif">1h</text>
<rect x="723.2" y="112.0" width="31.2" height="22.0" rx="11.0" fill="#ffffff" stroke="#d4d4d8" stroke-width="1"/>
<text x="738.8" y="126.6" font-size="10" fill="#52525b" font-weight="normal" text-anchor="middle" font-family="DejaVu Sans, sans-serif">6h</text>
<rect x="762.4" y="112.0" width="36.8" height="22.0" rx="11.0" fill="#18181b"/>
<text x="780.8" y="126.6" font-size="10" fill="#ffffff" font-weight="bold" text-anchor="middle" font-family="DejaVu Sans, sans-serif">24h</text>
<rect x="807.2" y="112.0" width="31.2" height="22.0" rx="11.0" fill="#ffffff" stroke="#d4d4d8" stroke-width="1"/>
<text x="822.8" y="126.6" font-size="10" fill="#52525b" font-weight="normal" text-anchor="middle" font-family="DejaVu Sans, sans-serif">7d</text>
<line x1="684.0" y1="152.0" x2="1020.0" y2="152.0" stroke="#d4d4d8" stroke-width="1"/>
<line x1="684.0" y1="227.0" x2="1020.0" y2="227.0" stroke="#d4d4d8" stroke-width="1"/>
<line x1="684.0" y1="302.0" x2="1020.0" y2="302.0" stroke="#d4d4d8" stroke-width="1"/>
<text x="1020.0" y="146.0" font-size="8.5" fill="#a1a1aa" font-weight="normal" text-anchor="end" font-family="DejaVu Sans, sans-serif">22.3°</text>
<text x="1020.0" y="314.0" font-size="8.5" fill="#a1a1aa" font-weight="normal" text-anchor="end" font-family="DejaVu Sans, sans-serif">20.8°</text>
<path d="M 684.0 209.8 L 696.4 214.5 L 708.9 220.2 L 721.3 225.9 L 733.8 231.0 L 746.2 234.8 L 758.7 237.0 L 771.1 237.8 L 783.6 237.4 L 796.0 236.5 L 808.4 235.8 L 820.9 236.0 L 833.3 237.5 L 845.8 240.7 L 858.2 245.3 L 870.7 251.0 L 883.1 257.0 L 895.6 262.5 L 908.0 266.6 L 920.4 268.6 L 932.9 267.9 L 945.3 264.4 L 957.8 258.3 L 970.2 250.2 L 982.7 240.9 L 995.1 231.4 L 1007.6 222.7 L 1020.0 215.5" stroke="#52525b" stroke-width="2" fill="none" stroke-linecap="round" stroke-linejoin="round"/>
<circle cx="1020.0" cy="215.5" r="2.5" fill="#18181b"/>
<line x1="892.3" y1="152.0" x2="892.3" y2="302.0" stroke="#a1a1aa" stroke-width="1" stroke-dasharray="2 3"/>
<circle cx="892.3" cy="215.0" r="4" fill="#ffffff" stroke="#18181b" stroke-width="1.5"/>
<rect x="902.3" y="185.0" width="92.0" height="40.0" rx="6" fill="#18181b"/>
<text x="914.3" y="203.0" font-size="12" fill="#ffffff" font-weight="bold" text-anchor="start" font-family="DejaVu Sans, sans-serif">21.6°</text>
<text x="914.3" y="219.0" font-size="9" fill="#f4f4f5" font-weight="normal" text-anchor="start" font-family="DejaVu Sans, sans-serif">14:32</text>
<text x="684.0" y="336.0" font-size="14" fill="#18181b" font-weight="bold" text-anchor="start" font-family="DejaVu Sans, sans-serif">21.4°</text>
<text x="684.0" y="352.0" font-size="9" fill="#a1a1aa" font-weight="normal" text-anchor="start" font-family="DejaVu Sans, sans-serif">latest</text>
<text x="768.0" y="336.0" font-size="14" fill="#18181b" font-weight="bold" text-anchor="start" font-family="DejaVu Sans, sans-serif">20.8°</text>
<text x="768.0" y="352.0" font-size="9" fill="#a1a1aa" font-weight="normal" text-anchor="start" font-family="DejaVu Sans, sans-serif">min</text>
<text x="852.0" y="336.0" font-size="14" fill="#18181b" font-weight="bold" text-anchor="start" font-family="DejaVu Sans, sans-serif">22.3°</text>
<text x="852.0" y="352.0" font-size="9" fill="#a1a1aa" font-weight="normal" text-anchor="start" font-family="DejaVu Sans, sans-serif">max</text>
<text x="936.0" y="336.0" font-size="14" fill="#18181b" font-weight="bold" text-anchor="start" font-family="DejaVu Sans, sans-serif">21.5°</text>
<text x="936.0" y="352.0" font-size="9" fill="#a1a1aa" font-weight="normal" text-anchor="start" font-family="DejaVu Sans, sans-serif">avg</text>
<rect x="1110.0" y="40.0" width="300.0" height="560.0" rx="22" fill="#ffffff" stroke="#52525b" stroke-width="1.2"/>
<rect x="1226.0" y="48.0" width="68.0" height="12.0" rx="6" fill="#f4f4f5" stroke="#d4d4d8" stroke-width="1"/>
<text x="1126.0" y="58.0" font-size="9" fill="#a1a1aa" font-weight="normal" text-anchor="start" font-family="DejaVu Sans, sans-serif">12:44</text>
<text x="1394.0" y="58.0" font-size="8" fill="#a1a1aa" font-weight="normal" text-anchor="end" font-family="DejaVu Sans, sans-serif">▮▮ WG</text>
<text x="1128.0" y="92.0" font-size="15" fill="#18181b" font-weight="bold" text-anchor="start" font-family="DejaVu Sans, sans-serif">Now</text>
<rect x="1126.0" y="104.0" width="268.0" height="92.0" rx="10" fill="#ffffff" stroke="#d4d4d8" stroke-width="1"/>
<text x="1140.0" y="124.0" font-size="10" fill="#a1a1aa" font-weight="bold" text-anchor="start" font-family="DejaVu Sans, sans-serif" letter-spacing="1.2">INSIDE</text>
<text x="1140.0" y="150.0" font-size="19" fill="#18181b" font-weight="bold" text-anchor="start" font-family="DejaVu Sans, sans-serif">21.4°</text>
<path d="M 1220.0 150.9 L 1225.3 151.7 L 1230.7 152.8 L 1236.0 153.8 L 1241.3 154.7 L 1246.7 155.4 L 1252.0 155.8 L 1257.3 156.0 L 1262.7 155.9 L 1268.0 155.7 L 1273.3 155.6 L 1278.7 155.6 L 1284.0 155.9 L 1289.3 156.5 L 1294.7 157.3 L 1300.0 158.4 L 1305.3 159.5 L 1310.7 160.5 L 1316.0 161.2 L 1321.3 161.6 L 1326.7 161.4 L 1332.0 160.8 L 1337.3 159.7 L 1342.7 158.2 L 1348.0 156.5 L 1353.3 154.8 L 1358.7 153.2 L 1364.0 151.9" stroke="#52525b" stroke-width="1.5" fill="none" stroke-linecap="round" stroke-linejoin="round"/>
<circle cx="1364.0" cy="151.9" r="2.5" fill="#18181b"/>
<text x="1140.0" y="186.0" font-size="9" fill="#a1a1aa" font-weight="normal" text-anchor="start" font-family="DejaVu Sans, sans-serif">20.8–22.3° today</text>
<rect x="1126.0" y="204.0" width="268.0" height="58.0" rx="10" fill="#ffffff" stroke="#d4d4d8" stroke-width="1"/>
<circle cx="1142.0" cy="224.0" r="3.5" fill="#52525b"/>
<text x="1152.0" y="228.0" font-size="10" fill="#18181b" font-weight="normal" text-anchor="start" font-family="DejaVu Sans, sans-serif">hallway motion · 3 min ago</text>
<circle cx="1142.0" cy="246.0" r="3.5" fill="none" stroke="#a1a1aa" stroke-width="1.2"/>
<text x="1152.0" y="250.0" font-size="10" fill="#52525b" font-weight="normal" text-anchor="start" font-family="DejaVu Sans, sans-serif">living room · clear</text>
<rect x="1126.0" y="270.0" width="268.0" height="148.0" rx="10" fill="#ffffff" stroke="#d4d4d8" stroke-width="1"/>
<text x="1140.0" y="290.0" font-size="10" fill="#a1a1aa" font-weight="bold" text-anchor="start" font-family="DejaVu Sans, sans-serif" letter-spacing="1.2">OUT OF THE ORDINARY</text>
<text x="1140.0" y="314.0" font-size="10.5" fill="#18181b" font-weight="bold" text-anchor="start" font-family="DejaVu Sans, sans-serif">evening lights</text>
<text x="1366.0" y="314.0" font-size="9" fill="#52525b" font-weight="normal" text-anchor="end" font-family="DejaVu Sans, sans-serif">backoff 3/5</text>
<text x="1380.0" y="315.0" font-size="11" fill="#a1a1aa" font-weight="normal" text-anchor="end" font-family="DejaVu Sans, sans-serif">›</text>
<text x="1140.0" y="348.0" font-size="10.5" fill="#18181b" font-weight="bold" text-anchor="start" font-family="DejaVu Sans, sans-serif">2 lights on</text>
<text x="1366.0" y="348.0" font-size="9" fill="#52525b" font-weight="normal" text-anchor="end" font-family="DejaVu Sans, sans-serif">Livingroom, Kitchen</text>
<text x="1380.0" y="349.0" font-size="11" fill="#a1a1aa" font-weight="normal" text-anchor="end" font-family="DejaVu Sans, sans-serif">›</text>
<text x="1140.0" y="382.0" font-size="10.5" fill="#18181b" font-weight="bold" text-anchor="start" font-family="DejaVu Sans, sans-serif">off time</text>
<text x="1366.0" y="382.0" font-size="9" fill="#52525b" font-weight="normal" text-anchor="end" font-family="DejaVu Sans, sans-serif">23:00 · default 22:00</text>
<text x="1380.0" y="383.0" font-size="11" fill="#a1a1aa" font-weight="normal" text-anchor="end" font-family="DejaVu Sans, sans-serif">›</text>
<line x1="1112.0" y1="546.0" x2="1408.0" y2="546.0" stroke="#d4d4d8" stroke-width="1"/>
<rect x="1136.5" y="556.0" width="22.0" height="16.0" rx="4" fill="#18181b"/>
<text x="1147.5" y="588.0" font-size="8.5" fill="#18181b" font-weight="bold" text-anchor="middle" font-family="DejaVu Sans, sans-serif">Now</text>
<rect x="1211.5" y="556.0" width="22.0" height="16.0" rx="4" fill="#f4f4f5" stroke="#d4d4d8" stroke-width="1"/>
<text x="1222.5" y="588.0" font-size="8.5" fill="#a1a1aa" font-weight="normal" text-anchor="middle" font-family="DejaVu Sans, sans-serif">Setpoints</text>
<rect x="1286.5" y="556.0" width="22.0" height="16.0" rx="4" fill="#f4f4f5" stroke="#d4d4d8" stroke-width="1"/>
<text x="1297.5" y="588.0" font-size="8.5" fill="#a1a1aa" font-weight="normal" text-anchor="middle" font-family="DejaVu Sans, sans-serif">Rooms</text>
<rect x="1361.5" y="556.0" width="22.0" height="16.0" rx="4" fill="#f4f4f5" stroke="#d4d4d8" stroke-width="1"/>
<text x="1372.5" y="588.0" font-size="8.5" fill="#a1a1aa" font-weight="normal" text-anchor="middle" font-family="DejaVu Sans, sans-serif">Health</text>
<text x="40.0" y="640.0" font-size="11" fill="#a1a1aa" font-weight="normal" text-anchor="start" font-family="DejaVu Sans, sans-serif">Every element is generated from the house repo's manifests — no layout or dashboard state exists anywhere else.</text>
</svg>