<svg xmlns="http://www.w3.org/2000/svg" width="1500" height="880" viewBox="0 0 1500 880" font-family="DejaVu Sans, sans-serif">
<rect width="1500" height="880" fill="#fafafa"/>
<text x="40.0" y="40.0" font-size="11" fill="#a1a1aa" font-weight="bold" text-anchor="start" font-family="DejaVu Sans, sans-serif" letter-spacing="1.5">HOMEOSTAT DASHBOARD · WIREFRAME 1/2</text>
<text x="40.0" y="68.0" font-size="22" fill="#18181b" font-weight="bold" text-anchor="start" font-family="DejaVu Sans, sans-serif">Concept A — The rooms</text>
<text x="40.0" y="90.0" font-size="13" fill="#52525b" font-weight="normal" text-anchor="start" font-family="DejaVu Sans, sans-serif">Spatial-first: the house as a grid of room cards, automations as their own cards. Everything below is generated from manifests — no layout state exists.</text>
<rect x="40.0" y="128.0" width="1000.0" height="520.0" rx="8" fill="#ffffff" stroke="#52525b" stroke-width="1.2"/>
<rect x="40.0" y="128.0" width="1000.0" height="28.0" rx="8" fill="#f4f4f5"/>
<rect x="40.0" y="148.0" width="1000.0" height="8.0" rx="0" fill="#f4f4f5"/>
<line x1="40.0" y1="156.0" x2="1040.0" y2="156.0" stroke="#d4d4d8" stroke-width="1"/>
<circle cx="56.0" cy="142.0" r="4.5" fill="none" stroke="#a1a1aa" stroke-width="1.2"/>
<circle cx="72.0" cy="142.0" r="4.5" fill="none" stroke="#a1a1aa" stroke-width="1.2"/>
<circle cx="88.0" cy="142.0" r="4.5" fill="none" stroke="#a1a1aa" stroke-width="1.2"/>
<rect x="108.0" y="134.0" width="240.0" height="16.0" rx="8" fill="#ffffff" stroke="#d4d4d8" stroke-width="1"/>
<text x="118.0" y="145.5" font-size="9.5" fill="#a1a1aa" font-weight="normal" text-anchor="start" font-family="DejaVu Sans, sans-serif">http://homeostat.lan  (LAN / WireGuard)</text>
<text x="60.0" y="186.0" font-size="15" fill="#18181b" font-weight="bold" text-anchor="start" font-family="DejaVu Sans, sans-serif">homeostat</text>
<rect x="190.0" y="168.0" width="81.6" height="24.0" rx="12.0" fill="#ffffff" stroke="#d4d4d8" stroke-width="1"/>
<text x="230.8" y="184.0" font-size="11" fill="#52525b" font-weight="normal" text-anchor="middle" font-family="DejaVu Sans, sans-serif">Hela huset</text>
<rect x="279.6" y="168.0" width="44.6" height="24.0" rx="12.0" fill="#18181b"/>
<text x="301.9" y="184.0" font-size="11" fill="#ffffff" font-weight="bold" text-anchor="middle" font-family="DejaVu Sans, sans-serif">Nere</text>
<rect x="332.2" y="168.0" width="44.6" height="24.0" rx="12.0" fill="#ffffff" stroke="#d4d4d8" stroke-width="1"/>
<text x="354.6" y="184.0" font-size="11" fill="#52525b" font-weight="normal" text-anchor="middle" font-family="DejaVu Sans, sans-serif">Uppe</text>
<rect x="384.9" y="168.0" width="38.5" height="24.0" rx="12.0" fill="#ffffff" stroke="#d4d4d8" stroke-width="1"/>
<text x="404.1" y="184.0" font-size="11" fill="#52525b" font-weight="normal" text-anchor="middle" font-family="DejaVu Sans, sans-serif">Ute</text>
<rect x="850.0" y="168.0" width="125.2" height="20.0" rx="10" fill="#f4f4f5" stroke="#d4d4d8" stroke-width="1"/>
<path d="M 863 173.5 L 867.5 181.5 L 858.5 181.5 Z" stroke="#18181b" stroke-width="1.2" fill="#18181b" stroke-linecap="round" stroke-linejoin="round"/>
<text x="872.0" y="182.0" font-size="10" fill="#52525b" font-weight="normal" text-anchor="start" font-family="DejaVu Sans, sans-serif">1 enhet · omstart</text>
<line x1="40.0" y1="202.0" x2="1040.0" y2="202.0" stroke="#d4d4d8" stroke-width="1"/>
<rect x="60.0" y="212.0" width="91.6" height="20.0" rx="10" fill="#ffffff" stroke="#d4d4d8" stroke-width="1"/>
<circle cx="73.0" cy="222.0" r="3.5" fill="#52525b"/>
<text x="82.0" y="226.0" font-size="10" fill="#52525b" font-weight="normal" text-anchor="start" font-family="DejaVu Sans, sans-serif">zigbee · ok</text>
<rect x="159.6" y="212.0" width="86.0" height="20.0" rx="10" fill="#ffffff" stroke="#d4d4d8" stroke-width="1"/>
<circle cx="172.6" cy="222.0" r="3.5" fill="#52525b"/>
<text x="181.6" y="226.0" font-size="10" fill="#52525b" font-weight="normal" text-anchor="start" font-family="DejaVu Sans, sans-serif">clock · ok</text>
<rect x="253.6" y="212.0" width="102.8" height="20.0" rx="10" fill="#ffffff" stroke="#d4d4d8" stroke-width="1"/>
<circle cx="266.6" cy="222.0" r="3.5" fill="#52525b"/>
<text x="275.6" y="226.0" font-size="10" fill="#52525b" font-weight="normal" text-anchor="start" font-family="DejaVu Sans, sans-serif">recorder · ok</text>
<rect x="364.4" y="212.0" width="74.8" height="20.0" rx="10" fill="#ffffff" stroke="#d4d4d8" stroke-width="1"/>
<circle cx="377.4" cy="222.0" r="3.5" fill="#52525b"/>
<text x="386.4" y="226.0" font-size="10" fill="#52525b" font-weight="normal" text-anchor="start" font-family="DejaVu Sans, sans-serif">mcp · ok</text>
<rect x="447.2" y="212.0" width="192.4" height="20.0" rx="10" fill="#f4f4f5" stroke="#d4d4d8" stroke-width="1"/>
<path d="M 460.2 217.5 L 464.7 225.5 L 455.7 225.5 Z" stroke="#18181b" stroke-width="1.2" fill="#18181b" stroke-linecap="round" stroke-linejoin="round"/>
<text x="469.2" y="226.0" font-size="10" fill="#52525b" font-weight="normal" text-anchor="start" font-family="DejaVu Sans, sans-serif">kvällsbelysning · omstart 3/5</text>
<line x1="40.0" y1="242.0" x2="1040.0" y2="242.0" stroke="#d4d4d8" stroke-width="1"/>
<rect x="56.0" y="256.0" width="312.0" height="216.0" rx="8" fill="#ffffff" stroke="#d4d4d8" stroke-width="1"/>
<text x="70.0" y="280.0" font-size="10" fill="#a1a1aa" font-weight="bold" text-anchor="start" font-family="DejaVu Sans, sans-serif" letter-spacing="1.2">VARDAGSRUM</text>
<text x="354.0" y="280.0" font-size="11" fill="#52525b" font-weight="normal" text-anchor="end" font-family="DejaVu Sans, sans-serif">21,4°</text>
<text x="70.0" y="308.0" font-size="11.5" fill="#18181b" font-weight="normal" text-anchor="start" font-family="DejaVu Sans, sans-serif">Lampan i vardagsrummet</text>
<rect x="320.0" y="296.0" width="34.0" height="18.0" rx="9" fill="#18181b"/>
<circle cx="344.0" cy="305.0" r="6.5" fill="#ffffff"/>
<text x="70.0" y="334.0" font-size="10" fill="#52525b" font-weight="normal" text-anchor="start" font-family="DejaVu Sans, sans-serif">ljusstyrka</text>
<line x1="162.0" y1="330.0" x2="310.0" y2="330.0" stroke="#d4d4d8" stroke-width="3"/>
<line x1="162.0" y1="330.0" x2="256.7" y2="330.0" stroke="#52525b" stroke-width="3"/>
<circle cx="256.7" cy="330.0" r="6" fill="#ffffff" stroke="#18181b" stroke-width="1.5"/>
<text x="354.0" y="334.0" font-size="10" fill="#52525b" font-weight="normal" text-anchor="end" font-family="DejaVu Sans, sans-serif">64 %</text>
<text x="70.0" y="362.0" font-size="11.5" fill="#18181b" font-weight="normal" text-anchor="start" font-family="DejaVu Sans, sans-serif">Golvlampan</text>
<rect x="320.0" y="350.0" width="34.0" height="18.0" rx="9" fill="#f4f4f5" stroke="#d4d4d8" stroke-width="1"/>
<circle cx="330.0" cy="359.0" r="6.5" fill="#a1a1aa"/>
<text x="70.0" y="392.0" font-size="11.5" fill="#18181b" font-weight="normal" text-anchor="start" font-family="DejaVu Sans, sans-serif">Temperaturen</text>
<text x="354.0" y="392.0" font-size="12" fill="#18181b" font-weight="bold" text-anchor="end" font-family="DejaVu Sans, sans-serif">21,4°</text>
<path d="M 204.0 387.5 L 207.4 388.2 L 210.8 389.0 L 214.2 389.8 L 217.6 390.6 L 221.0 391.1 L 224.4 391.5 L 227.9 391.6 L 231.3 391.5 L 234.7 391.4 L 238.1 391.3 L 241.5 391.3 L 244.9 391.5 L 248.3 392.0 L 251.7 392.7 L 255.1 393.5 L 258.5 394.4 L 261.9 395.2 L 265.3 395.8 L 268.7 396.0 L 272.1 395.9 L 275.6 395.4 L 279.0 394.5 L 282.4 393.4 L 285.8 392.0 L 289.2 390.6 L 292.6 389.4 L 296.0 388.3" stroke="#52525b" stroke-width="1.5" fill="none" stroke-linecap="round" stroke-linejoin="round"/>
<circle cx="296.0" cy="388.3" r="2.5" fill="#18181b"/>
<line x1="70.0" y1="410.0" x2="354.0" y2="410.0" stroke="#d4d4d8" stroke-width="1"/>
<text x="70.0" y="430.0" font-size="11.5" fill="#18181b" font-weight="normal" text-anchor="start" font-family="DejaVu Sans, sans-serif">Värmepumpen</text>
<rect x="156.0" y="420.0" width="74.0" height="14.0" rx="7" fill="#f4f4f5" stroke="#d4d4d8" stroke-width="1"/>
<text x="193.0" y="430.5" font-size="8" fill="#52525b" font-weight="normal" text-anchor="middle" font-family="DejaVu Sans, sans-serif" letter-spacing="0.5">ARBITRERAD</text>
<rect x="268.0" y="440.0" width="86.0" height="22.0" rx="5" fill="#ffffff" stroke="#d4d4d8" stroke-width="1"/>
<line x1="292.0" y1="440.0" x2="292.0" y2="462.0" stroke="#d4d4d8" stroke-width="1"/>
<line x1="330.0" y1="440.0" x2="330.0" y2="462.0" stroke="#d4d4d8" stroke-width="1"/>
<text x="280.0" y="455.0" font-size="12" fill="#52525b" font-weight="normal" text-anchor="middle" font-family="DejaVu Sans, sans-serif">–</text>
<text x="342.0" y="455.0" font-size="12" fill="#52525b" font-weight="normal" text-anchor="middle" font-family="DejaVu Sans, sans-serif">+</text>
<text x="311.0" y="455.0" font-size="11" fill="#18181b" font-weight="bold" text-anchor="middle" font-family="DejaVu Sans, sans-serif">21,0°</text>
<text x="70.0" y="454.0" font-size="9.5" fill="#a1a1aa" font-weight="normal" text-anchor="start" font-family="DejaVu Sans, sans-serif">börvärde · 18–24°</text>
<rect x="384.0" y="256.0" width="312.0" height="108.0" rx="8" fill="#ffffff" stroke="#d4d4d8" stroke-width="1"/>
<text x="398.0" y="280.0" font-size="10" fill="#a1a1aa" font-weight="bold" text-anchor="start" font-family="DejaVu Sans, sans-serif" letter-spacing="1.2">HALL</text>
<text x="398.0" y="308.0" font-size="11.5" fill="#18181b" font-weight="normal" text-anchor="start" font-family="DejaVu Sans, sans-serif">Taklampan i hallen</text>
<rect x="648.0" y="296.0" width="34.0" height="18.0" rx="9" fill="#18181b"/>
<circle cx="672.0" cy="305.0" r="6.5" fill="#ffffff"/>
<text x="398.0" y="338.0" font-size="11.5" fill="#18181b" font-weight="normal" text-anchor="start" font-family="DejaVu Sans, sans-serif">Rörelsesensorn i hallen</text>
<circle cx="598.0" cy="334.0" r="3.5" fill="#52525b"/>
<text x="606.0" y="338.0" font-size="10" fill="#52525b" font-weight="normal" text-anchor="start" font-family="DejaVu Sans, sans-serif">3 min sedan</text>
<rect x="712.0" y="256.0" width="312.0" height="176.0" rx="8" fill="#ffffff" stroke="#d4d4d8" stroke-width="1"/>
<text x="726.0" y="280.0" font-size="10" fill="#a1a1aa" font-weight="bold" text-anchor="start" font-family="DejaVu Sans, sans-serif" letter-spacing="1.2">KÖK</text>
<text x="1010.0" y="280.0" font-size="11" fill="#52525b" font-weight="normal" text-anchor="end" font-family="DejaVu Sans, sans-serif">22,1°</text>
<text x="726.0" y="308.0" font-size="11.5" fill="#18181b" font-weight="normal" text-anchor="start" font-family="DejaVu Sans, sans-serif">Taklampan i köket</text>
<rect x="976.0" y="296.0" width="34.0" height="18.0" rx="9" fill="#18181b"/>
<circle cx="1000.0" cy="305.0" r="6.5" fill="#ffffff"/>
<text x="726.0" y="334.0" font-size="10" fill="#52525b" font-weight="normal" text-anchor="start" font-family="DejaVu Sans, sans-serif">ljusstyrka</text>
<line x1="818.0" y1="330.0" x2="966.0" y2="330.0" stroke="#d4d4d8" stroke-width="3"/>
<line x1="818.0" y1="330.0" x2="936.4" y2="330.0" stroke="#52525b" stroke-width="3"/>
<circle cx="936.4" cy="330.0" r="6" fill="#ffffff" stroke="#18181b" stroke-width="1.5"/>
<text x="1010.0" y="334.0" font-size="10" fill="#52525b" font-weight="normal" text-anchor="end" font-family="DejaVu Sans, sans-serif">80 %</text>
<text x="726.0" y="358.0" font-size="10" fill="#52525b" font-weight="normal" text-anchor="start" font-family="DejaVu Sans, sans-serif">färgtemp.</text>
<line x1="818.0" y1="354.0" x2="966.0" y2="354.0" stroke="#d4d4d8" stroke-width="3"/>
<line x1="818.0" y1="354.0" x2="869.8" y2="354.0" stroke="#52525b" stroke-width="3"/>
<circle cx="869.8" cy="354.0" r="6" fill="#ffffff" stroke="#18181b" stroke-width="1.5"/>
<text x="1010.0" y="358.0" font-size="10" fill="#52525b" font-weight="normal" text-anchor="end" font-family="DejaVu Sans, sans-serif">2 900 K</text>
<text x="726.0" y="386.0" font-size="11.5" fill="#18181b" font-weight="normal" text-anchor="start" font-family="DejaVu Sans, sans-serif">Temperaturen</text>
<text x="1010.0" y="386.0" font-size="12" fill="#18181b" font-weight="bold" text-anchor="end" font-family="DejaVu Sans, sans-serif">22,1°</text>
<path d="M 860.0 382.0 L 863.4 382.0 L 866.8 382.0 L 870.2 381.8 L 873.6 381.8 L 877.0 381.9 L 880.4 382.2 L 883.9 382.8 L 887.3 383.6 L 890.7 384.5 L 894.1 385.5 L 897.5 386.4 L 900.9 387.1 L 904.3 387.5 L 907.7 387.5 L 911.1 387.1 L 914.5 386.3 L 917.9 385.4 L 921.3 384.3 L 924.7 383.2 L 928.1 382.3 L 931.6 381.6 L 935.0 381.3 L 938.4 381.3 L 941.8 381.6 L 945.2 382.1 L 948.6 382.7 L 952.0 383.3" stroke="#52525b" stroke-width="1.5" fill="none" stroke-linecap="round" stroke-linejoin="round"/>
<circle cx="952.0" cy="383.3" r="2.5" fill="#18181b"/>
<text x="56.0" y="498.0" font-size="10" fill="#a1a1aa" font-weight="bold" text-anchor="start" font-family="DejaVu Sans, sans-serif" letter-spacing="1.2">AUTOMATIONER — NERE</text>
<rect x="56.0" y="508.0" width="640.0" height="96.0" rx="8" fill="#ffffff" stroke="#d4d4d8" stroke-width="1"/>
<text x="70.0" y="532.0" font-size="12.5" fill="#18181b" font-weight="bold" text-anchor="start" font-family="DejaVu Sans, sans-serif">Kvällsbelysning</text>
<text x="70.0" y="550.0" font-size="10.5" fill="#52525b" font-weight="normal" text-anchor="start" font-family="DejaVu Sans, sans-serif">Släcker nere efter släcktid när ingen är hemma</text>
<text x="70.0" y="580.0" font-size="11" fill="#18181b" font-weight="normal" text-anchor="start" font-family="DejaVu Sans, sans-serif">släcktid</text>
<rect x="440.0" y="564.0" width="96.0" height="22.0" rx="5" fill="#ffffff" stroke="#d4d4d8" stroke-width="1"/>
<line x1="464.0" y1="564.0" x2="464.0" y2="586.0" stroke="#d4d4d8" stroke-width="1"/>
<line x1="512.0" y1="564.0" x2="512.0" y2="586.0" stroke="#d4d4d8" stroke-width="1"/>
<text x="452.0" y="579.0" font-size="12" fill="#52525b" font-weight="normal" text-anchor="middle" font-family="DejaVu Sans, sans-serif">–</text>
<text x="524.0" y="579.0" font-size="12" fill="#52525b" font-weight="normal" text-anchor="middle" font-family="DejaVu Sans, sans-serif">+</text>
<text x="488.0" y="579.0" font-size="11" fill="#18181b" font-weight="bold" text-anchor="middle" font-family="DejaVu Sans, sans-serif">22:00</text>
<text x="682.0" y="580.0" font-size="9.5" fill="#a1a1aa" font-weight="normal" text-anchor="end" font-family="DejaVu Sans, sans-serif">20:00–02:00</text>
<rect x="712.0" y="508.0" width="312.0" height="96.0" rx="8" fill="#f4f4f5" stroke="#d4d4d8" stroke-width="1" stroke-dasharray="4 4"/>
<text x="868.0" y="560.0" font-size="11" fill="#a1a1aa" font-weight="normal" text-anchor="middle" font-family="DejaVu Sans, sans-serif">+ Uppe, Ute …</text>
<rect x="1120.0" y="128.0" width="300.0" height="620.0" rx="22" fill="#ffffff" stroke="#52525b" stroke-width="1.2"/>
<rect x="1236.0" y="136.0" width="68.0" height="12.0" rx="6" fill="#f4f4f5" stroke="#d4d4d8" stroke-width="1"/>
<text x="1136.0" y="146.0" font-size="9" fill="#a1a1aa" font-weight="normal" text-anchor="start" font-family="DejaVu Sans, sans-serif">12:44</text>
<text x="1404.0" y="146.0" font-size="8" fill="#a1a1aa" font-weight="normal" text-anchor="end" font-family="DejaVu Sans, sans-serif">▮▮ WG</text>
<text x="1138.0" y="178.0" font-size="13" fill="#18181b" font-weight="bold" text-anchor="start" font-family="DejaVu Sans, sans-serif">homeostat</text>
<rect x="1320.0" y="164.0" width="91.6" height="20.0" rx="10" fill="#f4f4f5" stroke="#d4d4d8" stroke-width="1"/>
<path d="M 1333 169.5 L 1337.5 177.5 L 1328.5 177.5 Z" stroke="#18181b" stroke-width="1.2" fill="#18181b" stroke-linecap="round" stroke-linejoin="round"/>
<text x="1342.0" y="178.0" font-size="10" fill="#52525b" font-weight="normal" text-anchor="start" font-family="DejaVu Sans, sans-serif">1 · omstart</text>
<rect x="1138.0" y="192.0" width="76.0" height="22.0" rx="11.0" fill="#ffffff" stroke="#d4d4d8" stroke-width="1"/>
<text x="1176.0" y="206.6" font-size="10" fill="#52525b" font-weight="normal" text-anchor="middle" font-family="DejaVu Sans, sans-serif">Hela huset</text>
<rect x="1220.0" y="192.0" width="42.4" height="22.0" rx="11.0" fill="#18181b"/>
<text x="1241.2" y="206.6" font-size="10" fill="#ffffff" font-weight="bold" text-anchor="middle" font-family="DejaVu Sans, sans-serif">Nere</text>
<rect x="1268.4" y="192.0" width="42.4" height="22.0" rx="11.0" fill="#ffffff" stroke="#d4d4d8" stroke-width="1"/>
<text x="1289.6" y="206.6" font-size="10" fill="#52525b" font-weight="normal" text-anchor="middle" font-family="DejaVu Sans, sans-serif">Uppe</text>
<rect x="1316.8" y="192.0" width="36.8" height="22.0" rx="11.0" fill="#ffffff" stroke="#d4d4d8" stroke-width="1"/>
<text x="1335.2" y="206.6" font-size="10" fill="#52525b" font-weight="normal" text-anchor="middle" font-family="DejaVu Sans, sans-serif">Ute</text>
<rect x="1136.0" y="224.0" width="268.0" height="168.0" rx="8" fill="#ffffff" stroke="#d4d4d8" stroke-width="1"/>
<text x="1150.0" y="246.0" font-size="10" fill="#a1a1aa" font-weight="bold" text-anchor="start" font-family="DejaVu Sans, sans-serif" letter-spacing="1.2">VARDAGSRUM</text>
<text x="1390.0" y="246.0" font-size="10" fill="#52525b" font-weight="normal" text-anchor="end" font-family="DejaVu Sans, sans-serif">21,4°</text>
<text x="1150.0" y="272.0" font-size="11.5" fill="#18181b" font-weight="normal" text-anchor="start" font-family="DejaVu Sans, sans-serif">Lampan i vardagsrummet</text>
<rect x="1356.0" y="260.0" width="34.0" height="18.0" rx="9" fill="#18181b"/>
<circle cx="1380.0" cy="269.0" r="6.5" fill="#ffffff"/>
<text x="1150.0" y="298.0" font-size="10" fill="#52525b" font-weight="normal" text-anchor="start" font-family="DejaVu Sans, sans-serif">ljusstyrka</text>
<line x1="1242.0" y1="294.0" x2="1346.0" y2="294.0" stroke="#d4d4d8" stroke-width="3"/>
<line x1="1242.0" y1="294.0" x2="1308.6" y2="294.0" stroke="#52525b" stroke-width="3"/>
<circle cx="1308.6" cy="294.0" r="6" fill="#ffffff" stroke="#18181b" stroke-width="1.5"/>
<text x="1390.0" y="298.0" font-size="10" fill="#52525b" font-weight="normal" text-anchor="end" font-family="DejaVu Sans, sans-serif">64 %</text>
<text x="1150.0" y="326.0" font-size="11.5" fill="#18181b" font-weight="normal" text-anchor="start" font-family="DejaVu Sans, sans-serif">Golvlampan</text>
<rect x="1356.0" y="314.0" width="34.0" height="18.0" rx="9" fill="#f4f4f5" stroke="#d4d4d8" stroke-width="1"/>
<circle cx="1366.0" cy="323.0" r="6.5" fill="#a1a1aa"/>
<text x="1150.0" y="356.0" font-size="11.5" fill="#18181b" font-weight="normal" text-anchor="start" font-family="DejaVu Sans, sans-serif">Temperaturen</text>
<text x="1390.0" y="356.0" font-size="12" fill="#18181b" font-weight="bold" text-anchor="end" font-family="DejaVu Sans, sans-serif">21,4°</text>
<path d="M 1240.0 351.5 L 1243.4 352.2 L 1246.8 353.0 L 1250.2 353.8 L 1253.6 354.6 L 1257.0 355.1 L 1260.4 355.5 L 1263.9 355.6 L 1267.3 355.5 L 1270.7 355.4 L 1274.1 355.3 L 1277.5 355.3 L 1280.9 355.5 L 1284.3 356.0 L 1287.7 356.7 L 1291.1 357.5 L 1294.5 358.4 L 1297.9 359.2 L 1301.3 359.8 L 1304.7 360.0 L 1308.1 359.9 L 1311.6 359.4 L 1315.0 358.5 L 1318.4 357.4 L 1321.8 356.0 L 1325.2 354.6 L 1328.6 353.4 L 1332.0 352.3" stroke="#52525b" stroke-width="1.5" fill="none" stroke-linecap="round" stroke-linejoin="round"/>
<circle cx="1332.0" cy="352.3" r="2.5" fill="#18181b"/>
<rect x="1136.0" y="402.0" width="268.0" height="40.0" rx="8" fill="#ffffff" stroke="#d4d4d8" stroke-width="1"/>
<text x="1150.0" y="427.0" font-size="10" fill="#a1a1aa" font-weight="bold" text-anchor="start" font-family="DejaVu Sans, sans-serif" letter-spacing="1.2">HALL</text>
<text x="1374.0" y="427.0" font-size="9.5" fill="#52525b" font-weight="normal" text-anchor="end" font-family="DejaVu Sans, sans-serif">1 tänd · rörelse 3 min</text>
<text x="1390.0" y="427.0" font-size="11" fill="#a1a1aa" font-weight="normal" text-anchor="end" font-family="DejaVu Sans, sans-serif">▸</text>
<rect x="1136.0" y="450.0" width="268.0" height="40.0" rx="8" fill="#ffffff" stroke="#d4d4d8" stroke-width="1"/>
<text x="1150.0" y="475.0" font-size="10" fill="#a1a1aa" font-weight="bold" text-anchor="start" font-family="DejaVu Sans, sans-serif" letter-spacing="1.2">KÖK</text>
<text x="1374.0" y="475.0" font-size="9.5" fill="#52525b" font-weight="normal" text-anchor="end" font-family="DejaVu Sans, sans-serif">1 tänd · 22,1°</text>
<text x="1390.0" y="475.0" font-size="11" fill="#a1a1aa" font-weight="normal" text-anchor="end" font-family="DejaVu Sans, sans-serif">▸</text>
<text x="1150.0" y="514.0" font-size="10" fill="#a1a1aa" font-weight="bold" text-anchor="start" font-family="DejaVu Sans, sans-serif" letter-spacing="1.2">AUTOMATIONER</text>
<rect x="1136.0" y="522.0" width="268.0" height="62.0" rx="8" fill="#ffffff" stroke="#d4d4d8" stroke-width="1"/>
<text x="1150.0" y="544.0" font-size="11.5" fill="#18181b" font-weight="bold" text-anchor="start" font-family="DejaVu Sans, sans-serif">Kvällsbelysning</text>
<text x="1150.0" y="562.0" font-size="9.5" fill="#a1a1aa" font-weight="normal" text-anchor="start" font-family="DejaVu Sans, sans-serif">släcktid · 20:00–02:00</text>
<rect x="1304.0" y="542.0" width="86.0" height="22.0" rx="5" fill="#ffffff" stroke="#d4d4d8" stroke-width="1"/>
<line x1="1328.0" y1="542.0" x2="1328.0" y2="564.0" stroke="#d4d4d8" stroke-width="1"/>
<line x1="1366.0" y1="542.0" x2="1366.0" y2="564.0" stroke="#d4d4d8" stroke-width="1"/>
<text x="1316.0" y="557.0" font-size="12" fill="#52525b" font-weight="normal" text-anchor="middle" font-family="DejaVu Sans, sans-serif">–</text>
<text x="1378.0" y="557.0" font-size="12" fill="#52525b" font-weight="normal" text-anchor="middle" font-family="DejaVu Sans, sans-serif">+</text>
<text x="1347.0" y="557.0" font-size="11" fill="#18181b" font-weight="bold" text-anchor="middle" font-family="DejaVu Sans, sans-serif">22:00</text>
<rect x="1124.0" y="722.0" width="292.0" height="22.0" rx="18" fill="#fafafa"/>
<text x="1270.0" y="738.0" font-size="9" fill="#a1a1aa" font-weight="normal" text-anchor="middle" font-family="DejaVu Sans, sans-serif">⌄ scroll</text>
<text x="300.0" y="120.0" font-size="11.5" fill="#2563eb" font-weight="normal" text-anchor="start" font-family="DejaVu Sans, sans-serif" font-style="italic">zones.toml drives the tabs; rooms come from entity room fields</text>
<line x1="294.0" y1="116.0" x2="275.0" y2="180.0" stroke="#2563eb" stroke-width="1" stroke-dasharray="3 3"/>
<circle cx="275.0" cy="180.0" r="2.4" fill="#2563eb"/>
<text x="696.0" y="226.0" font-size="11" fill="#2563eb" font-weight="normal" text-anchor="start" font-family="DejaVu Sans, sans-serif" font-style="italic">← home/health/**: state by shape + word, never color alone</text>
<text x="40.0" y="700.0" font-size="11.5" fill="#2563eb" font-weight="normal" text-anchor="start" font-family="DejaVu Sans, sans-serif" font-style="italic">features: ["brightness"] ⇒ slider;</text>
<text x="40.0" y="715.0" font-size="11.5" fill="#2563eb" font-weight="normal" text-anchor="start" font-family="DejaVu Sans, sans-serif" font-style="italic">commands leave at the manual band</text>
<line x1="34.0" y1="696.0" x2="236.0" y2="352.0" stroke="#2563eb" stroke-width="1" stroke-dasharray="3 3"/>
<circle cx="236.0" cy="352.0" r="2.4" fill="#2563eb"/>
<text x="320.0" y="700.0" font-size="11.5" fill="#2563eb" font-weight="normal" text-anchor="start" font-family="DejaVu Sans, sans-serif" font-style="italic">sparkline: recorder over</text>
<text x="320.0" y="715.0" font-size="11.5" fill="#2563eb" font-weight="normal" text-anchor="start" font-family="DejaVu Sans, sans-serif" font-style="italic">home/history/**, last 24 h</text>
<line x1="314.0" y1="696.0" x2="280.0" y2="384.0" stroke="#2563eb" stroke-width="1" stroke-dasharray="3 3"/>
<circle cx="280.0" cy="384.0" r="2.4" fill="#2563eb"/>
<text x="560.0" y="700.0" font-size="11.5" fill="#2563eb" font-weight="normal" text-anchor="start" font-family="DejaVu Sans, sans-serif" font-style="italic">arbitrated entity: badge; manual wins,</text>
<text x="560.0" y="715.0" font-size="11.5" fill="#2563eb" font-weight="normal" text-anchor="start" font-family="DejaVu Sans, sans-serif" font-style="italic">preemption events surface here</text>
<line x1="554.0" y1="696.0" x2="193.0" y2="428.0" stroke="#2563eb" stroke-width="1" stroke-dasharray="3 3"/>
<circle cx="193.0" cy="428.0" r="2.4" fill="#2563eb"/>
<text x="830.0" y="700.0" font-size="11.5" fill="#2563eb" font-weight="normal" text-anchor="start" font-family="DejaVu Sans, sans-serif" font-style="italic">editable_by = "family" params only;</text>
<text x="830.0" y="715.0" font-size="11.5" fill="#2563eb" font-weight="normal" text-anchor="start" font-family="DejaVu Sans, sans-serif" font-style="italic">constraint rendered and enforced on publish</text>
<line x1="824.0" y1="696.0" x2="600.0" y2="576.0" stroke="#2563eb" stroke-width="1" stroke-dasharray="3 3"/>
<circle cx="600.0" cy="576.0" r="2.4" fill="#2563eb"/>
<text x="1136.0" y="776.0" font-size="11.5" fill="#2563eb" font-weight="normal" text-anchor="start" font-family="DejaVu Sans, sans-serif" font-style="italic">same generated structure, one column;</text>
<text x="1136.0" y="791.0" font-size="11.5" fill="#2563eb" font-weight="normal" text-anchor="start" font-family="DejaVu Sans, sans-serif" font-style="italic">collapsed rooms show a summary line</text>
<line x1="1130.0" y1="772.0" x2="1384.0" y2="458.0" stroke="#2563eb" stroke-width="1" stroke-dasharray="3 3"/>
<circle cx="1384.0" cy="458.0" r="2.4" fill="#2563eb"/>
<text x="40.0" y="856.0" font-size="11" fill="#a1a1aa" font-weight="normal" text-anchor="start" font-family="DejaVu Sans, sans-serif">Wireframe — grayscale is deliberate; visual design is a later pass. All labels from [naming].sv.</text>
</svg>